# xmcd
#
# Track frame offsets:
#	150
#	14879
#	32232
#	49502
#	70766
#	95208
#	114179
#	131664
#	149268
#	167300
#	193009
#	211983
#	232327
#	255307
#	271691
#	293608
#	309579
#
# Disc length: 4701 seconds
#
# Revision: 1
# Processed by: cddbd v1.5PL3 Copyright (c) Steve Scherf et al.
# Submitted via: audiograbber 1.82.01
#
DISCID=f4125b11
DTITLE=Gloria Gaynor - Millennium Hits
DYEAR=2000
DGENRE=
TTITLE0=I will survive
TTITLE1=First be a woman
TTITLE2=The eye of the tiger
TTITLE3=Don't you dare call it love
TTITLE4=Never can say goodbye
TTITLE5=The power of love
TTITLE6=I want to know what love is
TTITLE7=The heat is on
TTITLE8=Every time you go away
TTITLE9=Careless whisper
TTITLE10=Everybody wants to rule the wo
TTITLE11=Feel so real
TTITLE12=Can't take my eyes over you
TTITLE13=Suddenly
TTITLE14=Top shelf
TTITLE15=He's out of my life
TTITLE16=Medley
EXTD=
EXTT0=
EXTT1=
EXTT2=
EXTT3=
EXTT4=
EXTT5=
EXTT6=
EXTT7=
EXTT8=
EXTT9=
EXTT10=
EXTT11=
EXTT12=
EXTT13=
EXTT14=
EXTT15=
EXTT16=
PLAYORDER=
